<svg width="24" height="24" viewBox="0 0 24 24" fill="none" xmlns="http://www.w3.org/2000/svg">
<path d="M18.242 20.9297L18.242 20.9297L18.2365 20.9264L14.005 18.4161C13.911 18.3603 13.8042 18.3297 13.695 18.3271C13.2709 18.317 12.8552 18.2869 12.4658 18.2285L12.4647 18.2283C12.4036 18.2193 12.3548 18.1801 12.3331 18.1237C12.3126 18.0703 12.3204 18.0219 12.3593 17.9765C13.1531 17.0509 13.5681 15.9339 13.5681 14.7454C13.5681 11.7943 10.9866 9.47752 7.91823 9.47752C6.76944 9.47752 5.65642 9.79351 4.71378 10.4121C4.66507 10.442 4.61157 10.4462 4.55855 10.4236C4.50163 10.3945 4.47294 10.3453 4.46797 10.307C4.43813 10.0278 4.41924 9.75747 4.41924 9.48219C4.41924 4.64077 8.632 0.637499 13.8908 0.637499C19.1497 0.637499 23.3624 4.64077 23.3624 9.48219C23.3624 12.1452 22.1312 14.5985 19.9388 16.2865C19.7598 16.4243 19.6671 16.6465 19.6951 16.8707L20.0534 19.7351C20.0534 19.7358 20.0535 19.7365 20.0536 19.7372C20.1089 20.2134 19.9025 20.6503 19.5071 20.9075C19.3109 21.0332 19.0821 21.1009 18.8609 21.1009C18.6446 21.1009 18.4328 21.0455 18.242 20.9297ZM13.3101 17.0865C13.2076 17.2914 13.223 17.5355 13.3502 17.7259C13.4774 17.9161 13.6967 18.0236 13.9248 18.0076C13.9265 18.0078 13.935 18.0091 13.9489 18.0183C13.958 18.0244 13.9673 18.0302 13.9768 18.0359L18.3919 20.6584C18.5564 20.7603 18.7434 20.8092 18.9352 20.7928C19.1135 20.7775 19.2515 20.7096 19.3419 20.651C19.54 20.5253 19.8087 20.2269 19.7463 19.7676L19.3362 16.446C19.3299 16.3765 19.3597 16.3183 19.402 16.2861C21.7107 14.6657 23.0546 12.1785 23.0546 9.46108C23.0546 4.70819 18.9028 0.92351 13.8908 0.92351C9.06698 0.92351 5.03809 4.43734 4.73903 8.94428C4.72461 9.16151 4.82205 9.37107 4.99743 9.50005C5.17281 9.62904 5.40188 9.65961 5.60495 9.58112C6.32575 9.30254 7.10272 9.14934 7.90768 9.14934C11.2325 9.14934 13.8654 11.6837 13.8654 14.7243H13.8653L13.8654 14.7315C13.8747 15.5517 13.6793 16.3485 13.3101 17.0865Z" stroke="#FEFEFE" stroke-width="1.275" stroke-linejoin="round"/>
<path d="M4.404 21.9006L4.40109 21.8987C4.12865 21.7232 3.99018 21.4318 4.02403 21.1186L4.23431 19.5001C4.26276 19.2812 4.17589 19.0631 4.00471 18.9237C2.72223 17.8792 1.97087 16.3385 1.97087 14.7349C1.97087 12.9055 2.92776 11.1843 4.55671 10.1465L4.55673 10.1465L4.56166 10.1433C5.5428 9.50535 6.70898 9.15996 7.92855 9.15996C11.2534 9.15996 13.8862 11.6943 13.8862 14.7349C13.8862 15.9731 13.4354 17.1979 12.604 18.1705L12.6039 18.1705L12.5969 18.179C11.5285 19.4738 9.92138 20.2419 8.12961 20.2997C8.02205 20.3031 7.91711 20.3338 7.82459 20.3887L5.25119 21.9173C5.25103 21.9174 5.25086 21.9175 5.2507 21.9176C5.12207 21.9935 4.98194 22.0291 4.83674 22.0291C4.68237 22.0291 4.54014 21.9893 4.404 21.9006ZM5.32053 21.5061L7.8398 20.01C7.88548 19.9837 7.91243 19.9816 7.918 19.9816C9.64392 19.9816 11.2954 19.244 12.354 17.9596C13.1401 17.0295 13.5678 15.9164 13.5678 14.7243C13.5678 11.7829 10.9854 9.46709 7.918 9.46709C6.76829 9.46709 5.65439 9.78352 4.71123 10.4031C3.19209 11.3773 2.26817 12.9855 2.26817 14.7349C2.26817 16.4187 3.09555 17.9508 4.52686 18.9298C4.57168 18.9616 4.59947 19.015 4.59373 19.0819L4.36273 20.8766C4.33161 21.1184 4.44113 21.3568 4.64488 21.4907C4.84862 21.6246 5.1109 21.6306 5.32053 21.5061Z" stroke="#FEFEFE" stroke-width="1.275" stroke-linejoin="round"/>
<path d="M9.83337 7.08325H18.3334" stroke="#FEFEFE" stroke-width="1.275" stroke-linecap="round"/>
<path d="M12.6667 11.3333L18.3334 11.3333" stroke="#FEFEFE" stroke-width="1.275" stroke-linecap="round"/>
<path d="M5.58337 13.4583H9.83337" stroke="#FEFEFE" stroke-width="1.275" stroke-linecap="round"/>
<path d="M7 16.2917H9.83333" stroke="#FEFEFE" stroke-width="1.275" stroke-linecap="round"/>
</svg>
